<mxfile host="app.diagrams.net" modified="2024-07-02T20:58:30.866Z" agent="Mozilla/5.0 (Windows NT 10.0; Win64; x64) AppleWebKit/537.36 (KHTML, like Gecko) Chrome/126.0.0.0 Safari/537.36" etag="mmfnv9xPqrg0tcr5O8QK" version="24.6.4" type="onedrive">
  <diagram name="Page-1" id="rvXCP7hTruoL4DqfywB8">
    <mxGraphModel grid="1" page="1" gridSize="10" guides="1" tooltips="1" connect="1" arrows="1" fold="1" pageScale="1" pageWidth="850" pageHeight="1100" math="0" shadow="0">
      <root>
        <mxCell id="0" />
        <mxCell id="1" parent="0" />
        <mxCell id="cKOOA0pUqfYlAoB5cp8Y-29" value="" style="rounded=0;whiteSpace=wrap;html=1;fillColor=#f5f5f5;fontColor=#333333;strokeColor=#666666;" vertex="1" parent="1">
          <mxGeometry x="60" y="3530" width="700" height="570" as="geometry" />
        </mxCell>
        <mxCell id="1rOMMDzIGYxIcBe-inek-2" value="" style="rounded=1;whiteSpace=wrap;html=1;" vertex="1" parent="1">
          <mxGeometry x="660" y="3687.5" width="80" height="35" as="geometry" />
        </mxCell>
        <mxCell id="cKOOA0pUqfYlAoB5cp8Y-7" value="" style="rounded=0;whiteSpace=wrap;html=1;fillColor=#f5f5f5;fontColor=#333333;strokeColor=#666666;" vertex="1" parent="1">
          <mxGeometry x="26.25" y="1090" width="1247.5" height="2330" as="geometry" />
        </mxCell>
        <mxCell id="tbNheXdv1qLHbVu319Vw-27" value="" style="rounded=1;whiteSpace=wrap;html=1;" vertex="1" parent="1">
          <mxGeometry x="120" y="1110" width="1060" height="60" as="geometry" />
        </mxCell>
        <mxCell id="tbNheXdv1qLHbVu319Vw-28" value="" style="rounded=1;whiteSpace=wrap;html=1;" vertex="1" parent="1">
          <mxGeometry x="1090" y="1180" width="130" height="30" as="geometry" />
        </mxCell>
        <mxCell id="521fmQ0cmbkEFwXZAyOC-1" value="" style="rounded=0;whiteSpace=wrap;html=1;fillColor=#FBFFE8;fontColor=#333333;strokeColor=#666666;" vertex="1" parent="1">
          <mxGeometry x="60" width="660" height="810" as="geometry" />
        </mxCell>
        <mxCell id="tbNheXdv1qLHbVu319Vw-26" value="" style="rounded=1;whiteSpace=wrap;html=1;fillColor=#08FF41;" vertex="1" parent="1">
          <mxGeometry x="620" y="160" width="80" height="30" as="geometry" />
        </mxCell>
        <mxCell id="tbNheXdv1qLHbVu319Vw-25" value="" style="rounded=1;whiteSpace=wrap;html=1;fillColor=#2BD5FF;" vertex="1" parent="1">
          <mxGeometry x="70" y="30" width="620" height="120" as="geometry" />
        </mxCell>
        <mxCell id="tbNheXdv1qLHbVu319Vw-13" value="" style="rounded=1;whiteSpace=wrap;html=1;" vertex="1" parent="1">
          <mxGeometry x="65" y="1260" width="175" height="40" as="geometry" />
        </mxCell>
        <mxCell id="tbNheXdv1qLHbVu319Vw-12" value="" style="rounded=1;whiteSpace=wrap;html=1;" vertex="1" parent="1">
          <mxGeometry x="85" y="1310" width="605" height="180" as="geometry" />
        </mxCell>
        <mxCell id="tbNheXdv1qLHbVu319Vw-14" value="" style="rounded=1;whiteSpace=wrap;html=1;" vertex="1" parent="1">
          <mxGeometry x="97.5" y="1620" width="582.5" height="220" as="geometry" />
        </mxCell>
        <mxCell id="tbNheXdv1qLHbVu319Vw-15" value="" style="rounded=1;whiteSpace=wrap;html=1;" vertex="1" parent="1">
          <mxGeometry x="60" y="1570" width="120" height="40" as="geometry" />
        </mxCell>
        <mxCell id="tbNheXdv1qLHbVu319Vw-17" value="" style="rounded=1;whiteSpace=wrap;html=1;" vertex="1" parent="1">
          <mxGeometry x="60" y="1850" width="120" height="40" as="geometry" />
        </mxCell>
        <mxCell id="tbNheXdv1qLHbVu319Vw-18" value="" style="rounded=1;whiteSpace=wrap;html=1;" vertex="1" parent="1">
          <mxGeometry x="103.75" y="2530" width="120" height="40" as="geometry" />
        </mxCell>
        <mxCell id="tbNheXdv1qLHbVu319Vw-19" value="" style="rounded=1;whiteSpace=wrap;html=1;" vertex="1" parent="1">
          <mxGeometry x="92.5" y="2580" width="567.5" height="210" as="geometry" />
        </mxCell>
        <mxCell id="tbNheXdv1qLHbVu319Vw-20" value="" style="rounded=1;whiteSpace=wrap;html=1;" vertex="1" parent="1">
          <mxGeometry x="92.5" y="2810" width="120" height="40" as="geometry" />
        </mxCell>
        <mxCell id="tbNheXdv1qLHbVu319Vw-21" value="" style="rounded=1;whiteSpace=wrap;html=1;" vertex="1" parent="1">
          <mxGeometry x="80" y="2860" width="520" height="220" as="geometry" />
        </mxCell>
        <mxCell id="tbNheXdv1qLHbVu319Vw-22" value="" style="rounded=1;whiteSpace=wrap;html=1;" vertex="1" parent="1">
          <mxGeometry x="92.5" y="3110" width="85" height="30" as="geometry" />
        </mxCell>
        <mxCell id="tbNheXdv1qLHbVu319Vw-24" value="" style="rounded=1;whiteSpace=wrap;html=1;" vertex="1" parent="1">
          <mxGeometry x="87.5" y="3160" width="530" height="210" as="geometry" />
        </mxCell>
        <mxCell id="tbNheXdv1qLHbVu319Vw-11" value="" style="rounded=1;whiteSpace=wrap;html=1;fillColor=#FF584D;" vertex="1" parent="1">
          <mxGeometry x="97.5" y="340" width="150" height="40" as="geometry" />
        </mxCell>
        <mxCell id="tbNheXdv1qLHbVu319Vw-7" value="" style="rounded=1;whiteSpace=wrap;html=1;fillColor=#FFFFFF;" vertex="1" parent="1">
          <mxGeometry x="85" y="390" width="615" height="220" as="geometry" />
        </mxCell>
        <mxCell id="521fmQ0cmbkEFwXZAyOC-2" value="&lt;h1 style=&quot;margin-top: 0px;&quot;&gt;&lt;font style=&quot;font-size: 50px;&quot;&gt;The distraction of Phones in New Zealand schools&lt;/font&gt;&lt;/h1&gt;" style="text;html=1;whiteSpace=wrap;overflow=hidden;rounded=0;fontFamily=Playfair Display;fontSource=https%3A%2F%2Ffonts.googleapis.com%2Fcss%3Ffamily%3DPlayfair%2BDisplay;" vertex="1" parent="1">
          <mxGeometry x="87.5" y="20" width="582.5" height="120" as="geometry" />
        </mxCell>
        <mxCell id="521fmQ0cmbkEFwXZAyOC-3" value="" style="rounded=0;whiteSpace=wrap;html=1;" vertex="1" parent="1">
          <mxGeometry x="60" y="200" width="660" height="30" as="geometry" />
        </mxCell>
        <mxCell id="521fmQ0cmbkEFwXZAyOC-4" value="Introduction" style="rounded=0;whiteSpace=wrap;html=1;fontFamily=Bebas Neue;fontSource=https%3A%2F%2Ffonts.googleapis.com%2Fcss%3Ffamily%3DBebas%2BNeue;fontSize=20;fillColor=#EFFF08;" vertex="1" parent="1">
          <mxGeometry x="60" y="200" width="110" height="30" as="geometry" />
        </mxCell>
        <mxCell id="521fmQ0cmbkEFwXZAyOC-5" value="Solutions" style="rounded=0;whiteSpace=wrap;html=1;fontFamily=Bebas Neue;fontSource=https%3A%2F%2Ffonts.googleapis.com%2Fcss%3Ffamily%3DBebas%2BNeue;fontSize=20;fillColor=#EFFF08;" vertex="1" parent="1">
          <mxGeometry x="390" y="200" width="110" height="30" as="geometry" />
        </mxCell>
        <mxCell id="cKOOA0pUqfYlAoB5cp8Y-1" value="Evidence" style="rounded=0;whiteSpace=wrap;html=1;fontFamily=Bebas Neue;fontSource=https%3A%2F%2Ffonts.googleapis.com%2Fcss%3Ffamily%3DBebas%2BNeue;fontSize=20;fillColor=#EFFF08;" vertex="1" parent="1">
          <mxGeometry x="170" y="200" width="110" height="30" as="geometry" />
        </mxCell>
        <mxCell id="cKOOA0pUqfYlAoB5cp8Y-2" value="Videos" style="rounded=0;whiteSpace=wrap;html=1;fontFamily=Bebas Neue;fontSource=https%3A%2F%2Ffonts.googleapis.com%2Fcss%3Ffamily%3DBebas%2BNeue;fontSize=20;fillColor=#EFFF08;" vertex="1" parent="1">
          <mxGeometry x="280" y="200" width="110" height="30" as="geometry" />
        </mxCell>
        <mxCell id="cKOOA0pUqfYlAoB5cp8Y-4" value="Sources" style="rounded=0;whiteSpace=wrap;html=1;fontFamily=Bebas Neue;fontSource=https%3A%2F%2Ffonts.googleapis.com%2Fcss%3Ffamily%3DBebas%2BNeue;fontSize=20;fillColor=#EFFF08;" vertex="1" parent="1">
          <mxGeometry x="500" y="200" width="110" height="30" as="geometry" />
        </mxCell>
        <mxCell id="cKOOA0pUqfYlAoB5cp8Y-5" value="About" style="rounded=0;whiteSpace=wrap;html=1;fontFamily=Bebas Neue;fontSource=https%3A%2F%2Ffonts.googleapis.com%2Fcss%3Ffamily%3DBebas%2BNeue;fontSize=20;fillColor=#EFFF08;" vertex="1" parent="1">
          <mxGeometry x="610" y="200" width="110" height="30" as="geometry" />
        </mxCell>
        <mxCell id="cKOOA0pUqfYlAoB5cp8Y-6" value="Lorem ipsum dolor sit amet, consectetur adipiscing elit. Donec volutpat elementum elit vitae facilisis. Quisque ipsum est, placerat et nisl eu, tincidunt feugiat risus. Mauris sodales varius semper. Maecenas fermentum sapien dolor, ac facilisis ante sodales a. Etiam feugiat, lectus sed blandit rhoncus, ante ligula viverra ex, et efficitur risus mi quis arcu. Aenean hendrerit viverra tellus, at posuere odio scelerisque mattis. Duis in mollis tellus, vitae ultricies purus. In at pulvinar tortor. Quisque hendrerit gravida porta. Integer aliquam, turpis pharetra viverra lacinia, tortor arcu semper ex, nec facilisis lacus nulla nec elit. Mauris vehicula dui ex, vitae feugiat magna semper sed. Praesent vitae fermentum nisi. Aliquam semper efficitur erat, id blandit velit sodales sed. Vestibulum ut tempus odio, quis tempus sapien. Sed et tristique nunc. Fusce fermentum diam vel condimentum mattis." style="text;align=center;verticalAlign=middle;rounded=0;fontFamily=Montserrat;fontSource=https%3A%2F%2Ffonts.googleapis.com%2Fcss%3Ffamily%3DMontserrat;fillColor=none;whiteSpace=wrap;" vertex="1" parent="1">
          <mxGeometry x="105" y="370" width="565" height="255" as="geometry" />
        </mxCell>
        <mxCell id="cKOOA0pUqfYlAoB5cp8Y-9" value="&lt;h1 style=&quot;margin-top: 0px;&quot;&gt;&lt;span style=&quot;font-size: 50px;&quot;&gt;The Issue of phones in New Zealand schools&lt;/span&gt;&lt;/h1&gt;" style="text;html=1;whiteSpace=wrap;overflow=hidden;rounded=0;" vertex="1" parent="1">
          <mxGeometry x="117.5" y="1100" width="1165" height="80" as="geometry" />
        </mxCell>
        <mxCell id="cKOOA0pUqfYlAoB5cp8Y-10" value="&lt;h1 style=&quot;margin-top: 0px;&quot;&gt;Introduction&lt;/h1&gt;" style="text;html=1;whiteSpace=wrap;overflow=hidden;rounded=0;" vertex="1" parent="1">
          <mxGeometry x="70" y="1260" width="180" height="50" as="geometry" />
        </mxCell>
        <mxCell id="cKOOA0pUqfYlAoB5cp8Y-11" value="&lt;span style=&quot;font-family: &amp;quot;Open Sans&amp;quot;, Arial, sans-serif; font-size: 14px; text-align: justify; background-color: rgb(255, 255, 255);&quot;&gt;Lorem ipsum dolor sit amet, consectetur adipiscing elit. Donec volutpat elementum elit vitae facilisis. Quisque ipsum est, placerat et nisl eu, tincidunt feugiat risus. Mauris sodales varius semper. Maecenas fermentum sapien dolor, ac facilisis ante sodales a. Etiam feugiat, lectus sed blandit rhoncus, ante ligula viverra ex, et efficitur risus mi quis arcu. Aenean hendrerit viverra tellus, at posuere odio scelerisque mattis. Duis in mollis tellus, vitae ultricies purus. In at pulvinar tortor. Quisque hendrerit gravida porta. Integer aliquam, turpis pharetra viverra lacinia, tortor arcu semper ex, nec facilisis lacus nulla nec elit. Mauris vehicula dui ex, vitae feugiat magna semper sed. Praesent vitae fermentum nisi. Aliquam semper efficitur erat, id blandit velit sodales sed. Vestibulum ut tempus odio, quis tempus sapien. Sed et tristique nunc. Fusce fermentum diam vel condimentum mattis.&lt;/span&gt;" style="text;html=1;align=center;verticalAlign=middle;whiteSpace=wrap;rounded=0;" vertex="1" parent="1">
          <mxGeometry x="97.5" y="1390" width="580" height="20" as="geometry" />
        </mxCell>
        <mxCell id="cKOOA0pUqfYlAoB5cp8Y-12" value="&lt;h1 style=&quot;margin-top: 0px;&quot;&gt;Evidence&lt;/h1&gt;&lt;p&gt;&lt;br&gt;&lt;/p&gt;" style="text;html=1;whiteSpace=wrap;overflow=hidden;rounded=0;" vertex="1" parent="1">
          <mxGeometry x="65" y="1570" width="115" height="40" as="geometry" />
        </mxCell>
        <mxCell id="cKOOA0pUqfYlAoB5cp8Y-13" value="&lt;span style=&quot;font-family: &amp;quot;Open Sans&amp;quot;, Arial, sans-serif; font-size: 14px; text-align: justify; background-color: rgb(255, 255, 255);&quot;&gt;Lorem ipsum dolor sit amet, consectetur adipiscing elit. Donec volutpat elementum elit vitae facilisis. Quisque ipsum est, placerat et nisl eu, tincidunt feugiat risus. Mauris sodales varius semper. Maecenas fermentum sapien dolor, ac facilisis ante sodales a. Etiam feugiat, lectus sed blandit rhoncus, ante ligula viverra ex, et efficitur risus mi quis arcu. Aenean hendrerit viverra tellus, at posuere odio scelerisque mattis. Duis in mollis tellus, vitae ultricies purus. In at pulvinar tortor. Quisque hendrerit gravida porta. Integer aliquam, turpis pharetra viverra lacinia, tortor arcu semper ex, nec facilisis lacus nulla nec elit. Mauris vehicula dui ex, vitae feugiat magna semper sed. Praesent vitae fermentum nisi. Aliquam semper efficitur erat, id blandit velit sodales sed. Vestibulum ut tempus odio, quis tempus sapien. Sed et tristique nunc. Fusce fermentum diam vel condimentum mattis.&lt;/span&gt;" style="text;html=1;align=center;verticalAlign=middle;whiteSpace=wrap;rounded=0;" vertex="1" parent="1">
          <mxGeometry x="105" y="1590" width="560" height="280" as="geometry" />
        </mxCell>
        <mxCell id="cKOOA0pUqfYlAoB5cp8Y-15" value="&lt;h1 style=&quot;margin-top: 0px;&quot;&gt;Videos&lt;/h1&gt;" style="text;html=1;whiteSpace=wrap;overflow=hidden;rounded=0;" vertex="1" parent="1">
          <mxGeometry x="70" y="1850" width="160" height="40" as="geometry" />
        </mxCell>
        <mxCell id="cKOOA0pUqfYlAoB5cp8Y-17" value="Play Video" style="whiteSpace=wrap;html=1;align=center;" vertex="1" parent="1">
          <mxGeometry x="95" y="1930" width="545" height="250" as="geometry" />
        </mxCell>
        <mxCell id="cKOOA0pUqfYlAoB5cp8Y-19" value="Play video" style="rounded=0;whiteSpace=wrap;html=1;" vertex="1" parent="1">
          <mxGeometry x="95" y="2250" width="555" height="250" as="geometry" />
        </mxCell>
        <mxCell id="cKOOA0pUqfYlAoB5cp8Y-20" value="Video title" style="text;html=1;align=center;verticalAlign=middle;whiteSpace=wrap;rounded=0;" vertex="1" parent="1">
          <mxGeometry x="95" y="2220" width="60" height="30" as="geometry" />
        </mxCell>
        <mxCell id="cKOOA0pUqfYlAoB5cp8Y-22" value="Video title" style="text;html=1;align=center;verticalAlign=middle;whiteSpace=wrap;rounded=0;" vertex="1" parent="1">
          <mxGeometry x="95" y="1900" width="60" height="30" as="geometry" />
        </mxCell>
        <mxCell id="cKOOA0pUqfYlAoB5cp8Y-23" value="&lt;h1 style=&quot;margin-top: 0px;&quot;&gt;&lt;br&gt;&lt;/h1&gt;&lt;p&gt;&lt;span style=&quot;font-family: &amp;quot;Open Sans&amp;quot;, Arial, sans-serif; font-size: 14px; text-align: justify; background-color: rgb(255, 255, 255);&quot;&gt;Lorem ipsum dolor sit amet, consectetur adipiscing elit. Donec volutpat elementum elit vitae facilisis. Quisque ipsum est, placerat et nisl eu, tincidunt feugiat risus. Mauris sodales varius semper. Maecenas fermentum sapien dolor, ac facilisis ante sodales a. Etiam feugiat, lectus sed blandit rhoncus, ante ligula viverra ex, et efficitur risus mi quis arcu. Aenean hendrerit viverra tellus, at posuere odio scelerisque mattis. Duis in mollis tellus, vitae ultricies purus. In at pulvinar tortor. Quisque hendrerit gravida porta. Integer aliquam, turpis pharetra viverra lacinia, tortor arcu semper ex, nec facilisis lacus nulla nec elit. Mauris vehicula dui ex, vitae feugiat magna semper sed. Praesent vitae fermentum nisi. Aliquam semper efficitur erat, id blandit velit sodales sed. Vestibulum ut tempus odio, quis tempus sapien. Sed et tristique nunc. Fusce fermentum diam vel condimentum mattis.&lt;/span&gt;&lt;br&gt;&lt;/p&gt;" style="text;html=1;whiteSpace=wrap;overflow=hidden;rounded=0;" vertex="1" parent="1">
          <mxGeometry x="124.37" y="2530" width="486.25" height="265" as="geometry" />
        </mxCell>
        <mxCell id="cKOOA0pUqfYlAoB5cp8Y-26" value="the date &amp;amp; author here&amp;nbsp;" style="text;html=1;align=center;verticalAlign=middle;whiteSpace=wrap;rounded=0;" vertex="1" parent="1">
          <mxGeometry x="1080" y="1180" width="160" height="30" as="geometry" />
        </mxCell>
        <mxCell id="cKOOA0pUqfYlAoB5cp8Y-27" value="&lt;h1 style=&quot;margin-top: 0px; font-size: 80px;&quot;&gt;Website Idea no. 2&lt;/h1&gt;" style="text;html=1;whiteSpace=wrap;overflow=hidden;rounded=0;fontSize=80;" vertex="1" parent="1">
          <mxGeometry x="-70" y="1000" width="1590" height="100" as="geometry" />
        </mxCell>
        <mxCell id="cKOOA0pUqfYlAoB5cp8Y-28" value="&lt;h1 style=&quot;margin-top: 0px;&quot;&gt;Website Idea No. 1&lt;/h1&gt;" style="text;html=1;whiteSpace=wrap;overflow=hidden;rounded=0;" vertex="1" parent="1">
          <mxGeometry x="65" y="-40" width="240" height="40" as="geometry" />
        </mxCell>
        <mxCell id="cKOOA0pUqfYlAoB5cp8Y-31" value="&lt;h1 style=&quot;margin-top: 0px;&quot;&gt;Website Idea No.3&lt;/h1&gt;" style="text;html=1;whiteSpace=wrap;overflow=hidden;rounded=0;" vertex="1" parent="1">
          <mxGeometry x="65" y="3480" width="280" height="40" as="geometry" />
        </mxCell>
        <mxCell id="cKOOA0pUqfYlAoB5cp8Y-33" value="The Date &amp;amp; author" style="text;html=1;align=center;verticalAlign=middle;whiteSpace=wrap;rounded=0;fontFamily=Montserrat;fontSource=https%3A%2F%2Ffonts.googleapis.com%2Fcss%3Ffamily%3DMontserrat;" vertex="1" parent="1">
          <mxGeometry x="630" y="160" width="60" height="30" as="geometry" />
        </mxCell>
        <mxCell id="cKOOA0pUqfYlAoB5cp8Y-34" value="" style="rounded=0;whiteSpace=wrap;html=1;" vertex="1" parent="1">
          <mxGeometry x="60" y="3730" width="700" height="40" as="geometry" />
        </mxCell>
        <mxCell id="cKOOA0pUqfYlAoB5cp8Y-35" value="Introduction" style="rounded=0;whiteSpace=wrap;html=1;" vertex="1" parent="1">
          <mxGeometry x="60" y="3730" width="110" height="40" as="geometry" />
        </mxCell>
        <mxCell id="cKOOA0pUqfYlAoB5cp8Y-36" value="Evidence" style="rounded=0;whiteSpace=wrap;html=1;" vertex="1" parent="1">
          <mxGeometry x="170" y="3730" width="120" height="40" as="geometry" />
        </mxCell>
        <mxCell id="cKOOA0pUqfYlAoB5cp8Y-38" value="Videos" style="rounded=0;whiteSpace=wrap;html=1;" vertex="1" parent="1">
          <mxGeometry x="290" y="3730" width="120" height="40" as="geometry" />
        </mxCell>
        <mxCell id="cKOOA0pUqfYlAoB5cp8Y-39" value="Solutions" style="rounded=0;whiteSpace=wrap;html=1;" vertex="1" parent="1">
          <mxGeometry x="410" y="3730" width="120" height="40" as="geometry" />
        </mxCell>
        <mxCell id="cKOOA0pUqfYlAoB5cp8Y-40" value="Sources&amp;nbsp;" style="rounded=0;whiteSpace=wrap;html=1;" vertex="1" parent="1">
          <mxGeometry x="530" y="3730" width="110" height="40" as="geometry" />
        </mxCell>
        <mxCell id="cKOOA0pUqfYlAoB5cp8Y-41" value="About" style="rounded=0;whiteSpace=wrap;html=1;" vertex="1" parent="1">
          <mxGeometry x="640" y="3730" width="120" height="40" as="geometry" />
        </mxCell>
        <mxCell id="cKOOA0pUqfYlAoB5cp8Y-42" value="The purpose of this website is to address and find solutions of cell phones in secondary schools that interfere in studying" style="text;html=1;align=center;verticalAlign=middle;whiteSpace=wrap;rounded=0;" vertex="1" parent="1">
          <mxGeometry x="180" y="3670" width="460" height="60" as="geometry" />
        </mxCell>
        <mxCell id="cKOOA0pUqfYlAoB5cp8Y-43" value="Add a cool background here Idk" style="text;html=1;align=center;verticalAlign=middle;whiteSpace=wrap;rounded=0;" vertex="1" parent="1">
          <mxGeometry x="73.75" y="4050" width="60" height="30" as="geometry" />
        </mxCell>
        <mxCell id="cKOOA0pUqfYlAoB5cp8Y-44" value="click on any button to be taken to a different link" style="text;html=1;align=center;verticalAlign=middle;whiteSpace=wrap;rounded=0;" vertex="1" parent="1">
          <mxGeometry x="75" y="3780" width="150" height="30" as="geometry" />
        </mxCell>
        <mxCell id="cKOOA0pUqfYlAoB5cp8Y-45" value="Click on any button to be taken to a differnet link" style="text;html=1;align=center;verticalAlign=middle;whiteSpace=wrap;rounded=0;" vertex="1" parent="1">
          <mxGeometry x="840" y="240" width="160" height="30" as="geometry" />
        </mxCell>
        <mxCell id="cKOOA0pUqfYlAoB5cp8Y-46" value="&lt;h1 style=&quot;margin-top: 0px;&quot;&gt;Introduction&lt;/h1&gt;" style="text;html=1;whiteSpace=wrap;overflow=hidden;rounded=0;fontFamily=Bebas Neue;fontSource=https%3A%2F%2Ffonts.googleapis.com%2Fcss%3Ffamily%3DBebas%2BNeue;" vertex="1" parent="1">
          <mxGeometry x="112.5" y="340" width="120" height="40" as="geometry" />
        </mxCell>
        <mxCell id="GBVHtFfiB77jK16RjNSr-1" value="Navigation bar" style="text;html=1;align=center;verticalAlign=middle;whiteSpace=wrap;rounded=0;" vertex="1" parent="1">
          <mxGeometry x="860" y="3735" width="60" height="30" as="geometry" />
        </mxCell>
        <mxCell id="GBVHtFfiB77jK16RjNSr-2" value="" style="endArrow=classic;html=1;rounded=0;exitX=0;exitY=0.5;exitDx=0;exitDy=0;entryX=1;entryY=0.5;entryDx=0;entryDy=0;" edge="1" parent="1" source="GBVHtFfiB77jK16RjNSr-1" target="cKOOA0pUqfYlAoB5cp8Y-41">
          <mxGeometry width="50" height="50" relative="1" as="geometry">
            <mxPoint x="400" y="3990" as="sourcePoint" />
            <mxPoint x="450" y="3940" as="targetPoint" />
          </mxGeometry>
        </mxCell>
        <mxCell id="GBVHtFfiB77jK16RjNSr-3" value="Navigation Bar" style="text;html=1;align=center;verticalAlign=middle;whiteSpace=wrap;rounded=0;" vertex="1" parent="1">
          <mxGeometry x="880" y="200" width="60" height="30" as="geometry" />
        </mxCell>
        <mxCell id="GBVHtFfiB77jK16RjNSr-4" value="" style="endArrow=classic;html=1;rounded=0;exitX=0;exitY=0.5;exitDx=0;exitDy=0;entryX=1;entryY=0.5;entryDx=0;entryDy=0;" edge="1" parent="1" source="GBVHtFfiB77jK16RjNSr-3" target="cKOOA0pUqfYlAoB5cp8Y-5">
          <mxGeometry width="50" height="50" relative="1" as="geometry">
            <mxPoint x="400" y="300" as="sourcePoint" />
            <mxPoint x="720" y="220" as="targetPoint" />
          </mxGeometry>
        </mxCell>
        <mxCell id="GBVHtFfiB77jK16RjNSr-5" value="Date and author here" style="text;html=1;align=center;verticalAlign=middle;whiteSpace=wrap;rounded=0;" vertex="1" parent="1">
          <mxGeometry x="660" y="3690" width="80" height="30" as="geometry" />
        </mxCell>
        <mxCell id="GBVHtFfiB77jK16RjNSr-6" value="Purpose" style="text;html=1;align=center;verticalAlign=middle;whiteSpace=wrap;rounded=0;" vertex="1" parent="1">
          <mxGeometry x="75" y="3685" width="60" height="30" as="geometry" />
        </mxCell>
        <mxCell id="GBVHtFfiB77jK16RjNSr-7" value="" style="endArrow=classic;html=1;rounded=0;exitX=1;exitY=0.5;exitDx=0;exitDy=0;" edge="1" parent="1" source="GBVHtFfiB77jK16RjNSr-6" target="cKOOA0pUqfYlAoB5cp8Y-42">
          <mxGeometry width="50" height="50" relative="1" as="geometry">
            <mxPoint x="400" y="3700" as="sourcePoint" />
            <mxPoint x="450" y="3650" as="targetPoint" />
          </mxGeometry>
        </mxCell>
        <mxCell id="tbNheXdv1qLHbVu319Vw-1" value="Picture" style="rounded=0;whiteSpace=wrap;html=1;" vertex="1" parent="1">
          <mxGeometry x="760" y="1270" width="460" height="260" as="geometry" />
        </mxCell>
        <mxCell id="tbNheXdv1qLHbVu319Vw-2" value="Picture" style="rounded=0;whiteSpace=wrap;html=1;" vertex="1" parent="1">
          <mxGeometry x="760" y="1630" width="470" height="240" as="geometry" />
        </mxCell>
        <mxCell id="tbNheXdv1qLHbVu319Vw-3" value="Play video" style="rounded=0;whiteSpace=wrap;html=1;" vertex="1" parent="1">
          <mxGeometry x="740" y="2090" width="500" height="290" as="geometry" />
        </mxCell>
        <mxCell id="tbNheXdv1qLHbVu319Vw-4" value="Picture" style="rounded=0;whiteSpace=wrap;html=1;" vertex="1" parent="1">
          <mxGeometry x="740" y="2580" width="500" height="240" as="geometry" />
        </mxCell>
        <mxCell id="tbNheXdv1qLHbVu319Vw-5" value="Picture" style="rounded=0;whiteSpace=wrap;html=1;" vertex="1" parent="1">
          <mxGeometry x="740" y="2850" width="500" height="230" as="geometry" />
        </mxCell>
        <mxCell id="1rOMMDzIGYxIcBe-inek-1" value="" style="rounded=1;whiteSpace=wrap;html=1;" vertex="1" parent="1">
          <mxGeometry x="120" y="3550" width="560" height="120" as="geometry" />
        </mxCell>
        <mxCell id="tbNheXdv1qLHbVu319Vw-6" value="&lt;h1 style=&quot;text-align: left; margin-top: 0px;&quot;&gt;&lt;span style=&quot;font-size: 50px;&quot;&gt;The Issue of phones in New Zealand schools&lt;/span&gt;&lt;/h1&gt;" style="text;html=1;align=center;verticalAlign=middle;whiteSpace=wrap;rounded=0;" vertex="1" parent="1">
          <mxGeometry x="124.37" y="3570" width="605" height="90" as="geometry" />
        </mxCell>
        <mxCell id="tbNheXdv1qLHbVu319Vw-29" value="&lt;b&gt;&lt;font style=&quot;font-size: 24px;&quot;&gt;Solutions&lt;/font&gt;&lt;/b&gt;" style="text;html=1;align=center;verticalAlign=middle;whiteSpace=wrap;rounded=0;" vertex="1" parent="1">
          <mxGeometry x="133.75" y="2535" width="60" height="30" as="geometry" />
        </mxCell>
        <mxCell id="tbNheXdv1qLHbVu319Vw-31" value="&lt;span style=&quot;font-size: 24px;&quot;&gt;&lt;b&gt;Sources&lt;/b&gt;&lt;/span&gt;" style="text;html=1;align=center;verticalAlign=middle;whiteSpace=wrap;rounded=0;" vertex="1" parent="1">
          <mxGeometry x="120" y="2815" width="60" height="30" as="geometry" />
        </mxCell>
        <mxCell id="tbNheXdv1qLHbVu319Vw-32" value="&lt;br class=&quot;Apple-interchange-newline&quot;&gt;&lt;span style=&quot;color: rgb(0, 0, 0); font-family: &amp;quot;Open Sans&amp;quot;, Arial, sans-serif; font-size: 14px; font-style: normal; font-variant-ligatures: normal; font-variant-caps: normal; font-weight: 400; letter-spacing: normal; orphans: 2; text-align: justify; text-indent: 0px; text-transform: none; widows: 2; word-spacing: 0px; -webkit-text-stroke-width: 0px; white-space: normal; background-color: rgb(255, 255, 255); text-decoration-thickness: initial; text-decoration-style: initial; text-decoration-color: initial; display: inline !important; float: none;&quot;&gt;Lorem ipsum dolor sit amet, consectetur adipiscing elit. Donec volutpat elementum elit vitae facilisis. Quisque ipsum est, placerat et nisl eu, tincidunt feugiat risus. Mauris sodales varius semper. Maecenas fermentum sapien dolor, ac facilisis ante sodales a. Etiam feugiat, lectus sed blandit rhoncus, ante ligula viverra ex, et efficitur risus mi quis arcu. Aenean hendrerit viverra tellus, at posuere odio scelerisque mattis. Duis in mollis tellus, vitae ultricies purus. In at pulvinar tortor. Quisque hendrerit gravida porta. Integer aliquam, turpis pharetra viverra lacinia, tortor arcu semper ex, nec facilisis lacus nulla nec elit. Mauris vehicula dui ex, vitae feugiat magna semper sed. Praesent vitae fermentum nisi. Aliquam semper efficitur erat, id blandit velit sodales sed. Vestibulum ut tempus odio, quis tempus sapien. Sed et tristique nunc. Fusce fermentum diam vel condimentum mattis.&lt;/span&gt;" style="text;whiteSpace=wrap;html=1;" vertex="1" parent="1">
          <mxGeometry x="97.5" y="2850" width="510" height="220" as="geometry" />
        </mxCell>
        <mxCell id="tbNheXdv1qLHbVu319Vw-33" value="&lt;br class=&quot;Apple-interchange-newline&quot;&gt;&lt;span style=&quot;color: rgb(0, 0, 0); font-family: &amp;quot;Open Sans&amp;quot;, Arial, sans-serif; font-size: 14px; font-style: normal; font-variant-ligatures: normal; font-variant-caps: normal; font-weight: 400; letter-spacing: normal; orphans: 2; text-align: justify; text-indent: 0px; text-transform: none; widows: 2; word-spacing: 0px; -webkit-text-stroke-width: 0px; white-space: normal; background-color: rgb(255, 255, 255); text-decoration-thickness: initial; text-decoration-style: initial; text-decoration-color: initial; display: inline !important; float: none;&quot;&gt;Lorem ipsum dolor sit amet, consectetur adipiscing elit. Donec volutpat elementum elit vitae facilisis. Quisque ipsum est, placerat et nisl eu, tincidunt feugiat risus. Mauris sodales varius semper. Maecenas fermentum sapien dolor, ac facilisis ante sodales a. Etiam feugiat, lectus sed blandit rhoncus, ante ligula viverra ex, et efficitur risus mi quis arcu. Aenean hendrerit viverra tellus, at posuere odio scelerisque mattis. Duis in mollis tellus, vitae ultricies purus. In at pulvinar tortor. Quisque hendrerit gravida porta. Integer aliquam, turpis pharetra viverra lacinia, tortor arcu semper ex, nec facilisis lacus nulla nec elit. Mauris vehicula dui ex, vitae feugiat magna semper sed. Praesent vitae fermentum nisi. Aliquam semper efficitur erat, id blandit velit sodales sed. Vestibulum ut tempus odio, quis tempus sapien. Sed et tristique nunc. Fusce fermentum diam vel condimentum mattis.&lt;/span&gt;" style="text;whiteSpace=wrap;html=1;" vertex="1" parent="1">
          <mxGeometry x="110" y="3140" width="500" height="220" as="geometry" />
        </mxCell>
        <mxCell id="tbNheXdv1qLHbVu319Vw-35" value="&lt;span style=&quot;font-size: 24px;&quot;&gt;&lt;b&gt;About&lt;/b&gt;&lt;/span&gt;" style="text;html=1;align=center;verticalAlign=middle;whiteSpace=wrap;rounded=0;" vertex="1" parent="1">
          <mxGeometry x="103.75" y="3110" width="60" height="30" as="geometry" />
        </mxCell>
        <mxCell id="ZJrk0LMHDS4ttCstGy6Z-1" value="" style="rounded=0;whiteSpace=wrap;html=1;fillColor=#024E5B;fontColor=#333333;strokeColor=#666666;" vertex="1" parent="1">
          <mxGeometry x="1130" y="40" width="660" height="810" as="geometry" />
        </mxCell>
        <mxCell id="ZJrk0LMHDS4ttCstGy6Z-2" value="" style="rounded=1;whiteSpace=wrap;html=1;fillColor=#7CCBCB;" vertex="1" parent="1">
          <mxGeometry x="1690" y="200" width="80" height="30" as="geometry" />
        </mxCell>
        <mxCell id="ZJrk0LMHDS4ttCstGy6Z-3" value="" style="rounded=1;whiteSpace=wrap;html=1;fillColor=#02ABB0;" vertex="1" parent="1">
          <mxGeometry x="1140" y="70" width="620" height="120" as="geometry" />
        </mxCell>
        <mxCell id="ZJrk0LMHDS4ttCstGy6Z-4" value="" style="rounded=1;whiteSpace=wrap;html=1;fillColor=#DCDADE;" vertex="1" parent="1">
          <mxGeometry x="1167.5" y="380" width="150" height="40" as="geometry" />
        </mxCell>
        <mxCell id="ZJrk0LMHDS4ttCstGy6Z-5" value="" style="rounded=1;whiteSpace=wrap;html=1;fillColor=#DCDADE;" vertex="1" parent="1">
          <mxGeometry x="1155" y="430" width="615" height="220" as="geometry" />
        </mxCell>
        <mxCell id="ZJrk0LMHDS4ttCstGy6Z-6" value="&lt;h1 style=&quot;margin-top: 0px;&quot;&gt;&lt;font style=&quot;font-size: 50px;&quot;&gt;The distraction of Phones in New Zealand schools&lt;/font&gt;&lt;/h1&gt;" style="text;html=1;whiteSpace=wrap;overflow=hidden;rounded=0;fontFamily=Playfair Display;fontSource=https%3A%2F%2Ffonts.googleapis.com%2Fcss%3Ffamily%3DPlayfair%2BDisplay;" vertex="1" parent="1">
          <mxGeometry x="1157.5" y="60" width="582.5" height="120" as="geometry" />
        </mxCell>
        <mxCell id="ZJrk0LMHDS4ttCstGy6Z-7" value="" style="rounded=0;whiteSpace=wrap;html=1;" vertex="1" parent="1">
          <mxGeometry x="1130" y="240" width="660" height="30" as="geometry" />
        </mxCell>
        <mxCell id="ZJrk0LMHDS4ttCstGy6Z-8" value="Introduction" style="rounded=0;whiteSpace=wrap;html=1;fontFamily=Bebas Neue;fontSource=https%3A%2F%2Ffonts.googleapis.com%2Fcss%3Ffamily%3DBebas%2BNeue;fontSize=20;fillColor=#58C5D1;" vertex="1" parent="1">
          <mxGeometry x="1130" y="240" width="110" height="30" as="geometry" />
        </mxCell>
        <mxCell id="ZJrk0LMHDS4ttCstGy6Z-9" value="Solutions" style="rounded=0;whiteSpace=wrap;html=1;fontFamily=Bebas Neue;fontSource=https%3A%2F%2Ffonts.googleapis.com%2Fcss%3Ffamily%3DBebas%2BNeue;fontSize=20;fillColor=#58C5D1;" vertex="1" parent="1">
          <mxGeometry x="1460" y="240" width="110" height="30" as="geometry" />
        </mxCell>
        <mxCell id="ZJrk0LMHDS4ttCstGy6Z-10" value="Evidence" style="rounded=0;whiteSpace=wrap;html=1;fontFamily=Bebas Neue;fontSource=https%3A%2F%2Ffonts.googleapis.com%2Fcss%3Ffamily%3DBebas%2BNeue;fontSize=20;fillColor=#58C5D1;" vertex="1" parent="1">
          <mxGeometry x="1240" y="240" width="110" height="30" as="geometry" />
        </mxCell>
        <mxCell id="ZJrk0LMHDS4ttCstGy6Z-11" value="Videos" style="rounded=0;whiteSpace=wrap;html=1;fontFamily=Bebas Neue;fontSource=https%3A%2F%2Ffonts.googleapis.com%2Fcss%3Ffamily%3DBebas%2BNeue;fontSize=20;fillColor=#58C5D1;" vertex="1" parent="1">
          <mxGeometry x="1350" y="240" width="110" height="30" as="geometry" />
        </mxCell>
        <mxCell id="ZJrk0LMHDS4ttCstGy6Z-12" value="Sources" style="rounded=0;whiteSpace=wrap;html=1;fontFamily=Bebas Neue;fontSource=https%3A%2F%2Ffonts.googleapis.com%2Fcss%3Ffamily%3DBebas%2BNeue;fontSize=20;fillColor=#58C5D1;" vertex="1" parent="1">
          <mxGeometry x="1570" y="240" width="110" height="30" as="geometry" />
        </mxCell>
        <mxCell id="ZJrk0LMHDS4ttCstGy6Z-13" value="About" style="rounded=0;whiteSpace=wrap;html=1;fontFamily=Bebas Neue;fontSource=https%3A%2F%2Ffonts.googleapis.com%2Fcss%3Ffamily%3DBebas%2BNeue;fontSize=20;fillColor=#58C5D1;" vertex="1" parent="1">
          <mxGeometry x="1680" y="240" width="110" height="30" as="geometry" />
        </mxCell>
        <mxCell id="ZJrk0LMHDS4ttCstGy6Z-14" value="Phones are things that people can use to make their lives easier. But today, people such as  students don&#39;t use their phones wisely because most of the time, phones can be a distraction in schools..." style="text;align=center;verticalAlign=middle;rounded=0;fontFamily=Montserrat;fontSource=https%3A%2F%2Ffonts.googleapis.com%2Fcss%3Ffamily%3DMontserrat;fillColor=none;whiteSpace=wrap;" vertex="1" parent="1">
          <mxGeometry x="1175" y="410" width="565" height="255" as="geometry" />
        </mxCell>
        <mxCell id="ZJrk0LMHDS4ttCstGy6Z-15" value="The Date &amp;amp; author" style="text;html=1;align=center;verticalAlign=middle;whiteSpace=wrap;rounded=0;fontFamily=Montserrat;fontSource=https%3A%2F%2Ffonts.googleapis.com%2Fcss%3Ffamily%3DMontserrat;" vertex="1" parent="1">
          <mxGeometry x="1700" y="200" width="60" height="30" as="geometry" />
        </mxCell>
        <mxCell id="ZJrk0LMHDS4ttCstGy6Z-16" value="Click on any button to be taken to a differnet link" style="text;html=1;align=center;verticalAlign=middle;whiteSpace=wrap;rounded=0;" vertex="1" parent="1">
          <mxGeometry x="1910" y="280" width="160" height="30" as="geometry" />
        </mxCell>
        <mxCell id="ZJrk0LMHDS4ttCstGy6Z-17" value="&lt;h1 style=&quot;margin-top: 0px;&quot;&gt;Introduction&lt;/h1&gt;" style="text;html=1;whiteSpace=wrap;overflow=hidden;rounded=0;fontFamily=Bebas Neue;fontSource=https%3A%2F%2Ffonts.googleapis.com%2Fcss%3Ffamily%3DBebas%2BNeue;" vertex="1" parent="1">
          <mxGeometry x="1182.5" y="380" width="120" height="40" as="geometry" />
        </mxCell>
        <mxCell id="ZJrk0LMHDS4ttCstGy6Z-18" value="Navigation Bar" style="text;html=1;align=center;verticalAlign=middle;whiteSpace=wrap;rounded=0;" vertex="1" parent="1">
          <mxGeometry x="1950" y="240" width="60" height="30" as="geometry" />
        </mxCell>
        <mxCell id="ZJrk0LMHDS4ttCstGy6Z-19" value="" style="endArrow=classic;html=1;rounded=0;exitX=0;exitY=0.5;exitDx=0;exitDy=0;entryX=1;entryY=0.5;entryDx=0;entryDy=0;" edge="1" parent="1" source="ZJrk0LMHDS4ttCstGy6Z-18" target="ZJrk0LMHDS4ttCstGy6Z-13">
          <mxGeometry width="50" height="50" relative="1" as="geometry">
            <mxPoint x="1470" y="340" as="sourcePoint" />
            <mxPoint x="1790" y="260" as="targetPoint" />
          </mxGeometry>
        </mxCell>
        <mxCell id="ZJrk0LMHDS4ttCstGy6Z-21" value="Footer" style="text;html=1;align=center;verticalAlign=middle;whiteSpace=wrap;rounded=0;fontFamily=Montserrat;fontSource=https%3A%2F%2Ffonts.googleapis.com%2Fcss%3Ffamily%3DMontserrat;" vertex="1" parent="1">
          <mxGeometry x="1430" y="820" width="60" height="30" as="geometry" />
        </mxCell>
        <mxCell id="jnqCC53hhd2RPTjh-sYh-1" value="" style="rounded=0;whiteSpace=wrap;html=1;fillColor=#024E5B;fontColor=#333333;strokeColor=#666666;" vertex="1" parent="1">
          <mxGeometry x="2200" y="40" width="660" height="1140" as="geometry" />
        </mxCell>
        <mxCell id="jnqCC53hhd2RPTjh-sYh-2" value="" style="rounded=1;whiteSpace=wrap;html=1;fillColor=#7CCBCB;" vertex="1" parent="1">
          <mxGeometry x="2760" y="200" width="80" height="30" as="geometry" />
        </mxCell>
        <mxCell id="jnqCC53hhd2RPTjh-sYh-3" value="" style="rounded=1;whiteSpace=wrap;html=1;fillColor=#02ABB0;" vertex="1" parent="1">
          <mxGeometry x="2210" y="70" width="620" height="120" as="geometry" />
        </mxCell>
        <mxCell id="jnqCC53hhd2RPTjh-sYh-4" value="" style="rounded=1;whiteSpace=wrap;html=1;fillColor=#DCDADE;" vertex="1" parent="1">
          <mxGeometry x="2227.5" y="310" width="102.5" height="40" as="geometry" />
        </mxCell>
        <mxCell id="jnqCC53hhd2RPTjh-sYh-6" value="&lt;h1 style=&quot;margin-top: 0px;&quot;&gt;&lt;font style=&quot;font-size: 50px;&quot;&gt;The distraction of Phones in New Zealand schools&lt;/font&gt;&lt;/h1&gt;" style="text;html=1;whiteSpace=wrap;overflow=hidden;rounded=0;fontFamily=Playfair Display;fontSource=https%3A%2F%2Ffonts.googleapis.com%2Fcss%3Ffamily%3DPlayfair%2BDisplay;" vertex="1" parent="1">
          <mxGeometry x="2227.5" y="60" width="582.5" height="120" as="geometry" />
        </mxCell>
        <mxCell id="jnqCC53hhd2RPTjh-sYh-7" value="" style="rounded=0;whiteSpace=wrap;html=1;" vertex="1" parent="1">
          <mxGeometry x="2200" y="240" width="660" height="30" as="geometry" />
        </mxCell>
        <mxCell id="jnqCC53hhd2RPTjh-sYh-8" value="Introduction" style="rounded=0;whiteSpace=wrap;html=1;fontFamily=Bebas Neue;fontSource=https%3A%2F%2Ffonts.googleapis.com%2Fcss%3Ffamily%3DBebas%2BNeue;fontSize=20;fillColor=#58C5D1;" vertex="1" parent="1">
          <mxGeometry x="2200" y="240" width="110" height="30" as="geometry" />
        </mxCell>
        <mxCell id="jnqCC53hhd2RPTjh-sYh-9" value="Solutions" style="rounded=0;whiteSpace=wrap;html=1;fontFamily=Bebas Neue;fontSource=https%3A%2F%2Ffonts.googleapis.com%2Fcss%3Ffamily%3DBebas%2BNeue;fontSize=20;fillColor=#58C5D1;" vertex="1" parent="1">
          <mxGeometry x="2530" y="240" width="110" height="30" as="geometry" />
        </mxCell>
        <mxCell id="jnqCC53hhd2RPTjh-sYh-10" value="Evidence" style="rounded=0;whiteSpace=wrap;html=1;fontFamily=Bebas Neue;fontSource=https%3A%2F%2Ffonts.googleapis.com%2Fcss%3Ffamily%3DBebas%2BNeue;fontSize=20;fillColor=#58C5D1;" vertex="1" parent="1">
          <mxGeometry x="2310" y="240" width="110" height="30" as="geometry" />
        </mxCell>
        <mxCell id="jnqCC53hhd2RPTjh-sYh-11" value="Videos" style="rounded=0;whiteSpace=wrap;html=1;fontFamily=Bebas Neue;fontSource=https%3A%2F%2Ffonts.googleapis.com%2Fcss%3Ffamily%3DBebas%2BNeue;fontSize=20;fillColor=#58C5D1;" vertex="1" parent="1">
          <mxGeometry x="2420" y="240" width="110" height="30" as="geometry" />
        </mxCell>
        <mxCell id="jnqCC53hhd2RPTjh-sYh-12" value="Sources" style="rounded=0;whiteSpace=wrap;html=1;fontFamily=Bebas Neue;fontSource=https%3A%2F%2Ffonts.googleapis.com%2Fcss%3Ffamily%3DBebas%2BNeue;fontSize=20;fillColor=#58C5D1;" vertex="1" parent="1">
          <mxGeometry x="2640" y="240" width="110" height="30" as="geometry" />
        </mxCell>
        <mxCell id="jnqCC53hhd2RPTjh-sYh-13" value="About" style="rounded=0;whiteSpace=wrap;html=1;fontFamily=Bebas Neue;fontSource=https%3A%2F%2Ffonts.googleapis.com%2Fcss%3Ffamily%3DBebas%2BNeue;fontSize=20;fillColor=#58C5D1;" vertex="1" parent="1">
          <mxGeometry x="2750" y="240" width="110" height="30" as="geometry" />
        </mxCell>
        <mxCell id="jnqCC53hhd2RPTjh-sYh-15" value="The Date &amp;amp; author" style="text;html=1;align=center;verticalAlign=middle;whiteSpace=wrap;rounded=0;fontFamily=Montserrat;fontSource=https%3A%2F%2Ffonts.googleapis.com%2Fcss%3Ffamily%3DMontserrat;" vertex="1" parent="1">
          <mxGeometry x="2770" y="200" width="60" height="30" as="geometry" />
        </mxCell>
        <mxCell id="jnqCC53hhd2RPTjh-sYh-16" value="Click on any button to be taken to a differnet link" style="text;html=1;align=center;verticalAlign=middle;whiteSpace=wrap;rounded=0;" vertex="1" parent="1">
          <mxGeometry x="2980" y="280" width="160" height="30" as="geometry" />
        </mxCell>
        <mxCell id="jnqCC53hhd2RPTjh-sYh-17" value="&lt;h1 style=&quot;margin-top: 0px;&quot;&gt;Videos&lt;/h1&gt;" style="text;html=1;whiteSpace=wrap;overflow=hidden;rounded=0;fontFamily=Bebas Neue;fontSource=https%3A%2F%2Ffonts.googleapis.com%2Fcss%3Ffamily%3DBebas%2BNeue;" vertex="1" parent="1">
          <mxGeometry x="2250" y="310" width="120" height="40" as="geometry" />
        </mxCell>
        <mxCell id="jnqCC53hhd2RPTjh-sYh-18" value="Navigation Bar" style="text;html=1;align=center;verticalAlign=middle;whiteSpace=wrap;rounded=0;" vertex="1" parent="1">
          <mxGeometry x="3020" y="240" width="60" height="30" as="geometry" />
        </mxCell>
        <mxCell id="jnqCC53hhd2RPTjh-sYh-19" value="" style="endArrow=classic;html=1;rounded=0;exitX=0;exitY=0.5;exitDx=0;exitDy=0;entryX=1;entryY=0.5;entryDx=0;entryDy=0;" edge="1" parent="1" source="jnqCC53hhd2RPTjh-sYh-18" target="jnqCC53hhd2RPTjh-sYh-13">
          <mxGeometry width="50" height="50" relative="1" as="geometry">
            <mxPoint x="2540" y="340" as="sourcePoint" />
            <mxPoint x="2860" y="260" as="targetPoint" />
          </mxGeometry>
        </mxCell>
        <mxCell id="jnqCC53hhd2RPTjh-sYh-20" value="Footer" style="text;html=1;align=center;verticalAlign=middle;whiteSpace=wrap;rounded=0;" vertex="1" parent="1">
          <mxGeometry x="2500" y="1150" width="60" height="30" as="geometry" />
        </mxCell>
        <mxCell id="jnqCC53hhd2RPTjh-sYh-21" value="Video" style="rounded=0;whiteSpace=wrap;html=1;" vertex="1" parent="1">
          <mxGeometry x="2365" y="380" width="330" height="170" as="geometry" />
        </mxCell>
        <mxCell id="jnqCC53hhd2RPTjh-sYh-22" value="Video" style="rounded=0;whiteSpace=wrap;html=1;" vertex="1" parent="1">
          <mxGeometry x="2365" y="752.5" width="330" height="165" as="geometry" />
        </mxCell>
        <mxCell id="jnqCC53hhd2RPTjh-sYh-24" value="Explanation" style="rounded=1;whiteSpace=wrap;html=1;fillColor=#DCDADE;" vertex="1" parent="1">
          <mxGeometry x="2422.5" y="580" width="215" height="140" as="geometry" />
        </mxCell>
        <mxCell id="jnqCC53hhd2RPTjh-sYh-26" value="Explanation" style="rounded=1;whiteSpace=wrap;html=1;fillColor=#DCDADE;" vertex="1" parent="1">
          <mxGeometry x="2425" y="960" width="215" height="140" as="geometry" />
        </mxCell>
      </root>
    </mxGraphModel>
  </diagram>
</mxfile>
